PathFileType	4	(X/Y/Z)	walk-thru1-2-TP.trc
DataRate	CameraRate	NumFrames	NumMarkers	Units	OrigDataRate	OrigDataStartFrame	OrigNumFrames
120.00	120.00	       5	60	mm	120.00	166	       441
Frame#	Time	Top.Head			Front.Head			Rear.Head			Jaw			C7			R.Clavicle			L.Clavicle			R.Shoulder			L.Shoulder			R.Scapula			L.Scapula			R.Scap.Inf			R.Biceps.Lateral			R.Elbow			R.Elbow.Medial			R.Forearm			R.Ulna			R.Radius			R.Wrist			R.Thumb.M1			R.Thumb.M2			R.Thumb.M3			R.Finger3.M1			R.Finger3.M2			R.Finger3.M3			L.Biceps.Lateral			L.Elbow			L.Elbow.Medial			L.Forearm			L.Ulna			L.Radius			L.Wrist			L.Thumb.M1			L.Thumb.M2			L.Thumb.M3			L.Finger3.M1			L.Finger3.M2			L.Finger3.M3			V.Sacral			R.ASIS			L.ASIS			R.Thigh			R.Thigh.Front			R.Knee			R.Knee.Medial			R.Shank			R.Ankle			R.Ankle.Medial			R.Heel			R.Toe			R.MedFoot			L.Thigh			L.Knee			L.Knee.Medial			L.Shank			L.Ankle			L.Ankle.Medial			L.Heel			L.Toe			L.MedFoot			V_mid_ASIS			V_R_Knee_JC			V_L_Knee_JC			V_R_Elbow_JC			V_L_Elbow_JC			V_R_Ankle_JC			V_L_Ankle_JC			V_R_Wrist_JC			V_L_Wrist_JC			V_R_ScaTrpz_1stMC_JC			V_R_1stMC_1stPP_JC			V_R_1stPP_1stDP_JC			V_R_LunCap_3rdMC_JC			V_R_3rdMC_3rdPP_JC			V_R_3rdPP_3rdMP_JC			V_R_3rdMP_3rdDP_JC			V_L_ScaTrpz_1stMC_JC			V_L_1stMC_1stPP_JC			V_L_1stPP_1stDP_JC			V_L_LunCap_3rdMC_JC			V_L_3rdMC_3rdPP_JC			V_L_3rdPP_3rdMP_JC			V_L_3rdMP_3rdPP_JC			V_ROOT_JC			V_R_Hip_JC			V_L_Hip_JC			V_R_GlenHum_JC			V_L_GlenHum_JC			V_ForeHead_Ctr			V_Vertex			V_Sagit_Lambdoid_Suture			V_R_FrontoTemp			V_L_FrontoTemporal			V_R_ParietalOccip			V_L_ParietalOcciptal			V_R_Temporal			V_L_Temporal			V_mid_FrontRearHead			V_mid_RLGlenHumCtrs			V_C7_vert			V_C1_vert			V_Mid_Hip			
		X1	Y1	Z1	X2	Y2	Z2	X3	Y3	Z3	X4	Y4	Z4	X5	Y5	Z5	X6	Y6	Z6	X7	Y7	Z7	X8	Y8	Z8	X9	Y9	Z9	X10	Y10	Z10	X11	Y11	Z11	X12	Y12	Z12	X13	Y13	Z13	X14	Y14	Z14	X15	Y15	Z15	X16	Y16	Z16	X17	Y17	Z17	X18	Y18	Z18	X19	Y19	Z19	X20	Y20	Z20	X21	Y21	Z21	X22	Y22	Z22	X23	Y23	Z23	X24	Y24	Z24	X25	Y25	Z25	X26	Y26	Z26	X27	Y27	Z27	X28	Y28	Z28	X29	Y29	Z29	X30	Y30	Z30	X31	Y31	Z31	X32	Y32	Z32	X33	Y33	Z33	X34	Y34	Z34	X35	Y35	Z35	X36	Y36	Z36	X37	Y37	Z37	X38	Y38	Z38	X39	Y39	Z39	X40	Y40	Z40	X41	Y41	Z41	X42	Y42	Z42	X43	Y43	Z43	X44	Y44	Z44	X45	Y45	Z45	X46	Y46	Z46	X47	Y47	Z47	X48	Y48	Z48	X49	Y49	Z49	X50	Y50	Z50	X51	Y51	Z51	X52	Y52	Z52	X53	Y53	Z53	X54	Y54	Z54	X55	Y55	Z55	X56	Y56	Z56	X57	Y57	Z57	X58	Y58	Z58	X59	Y59	Z59	X60	Y60	Z60	

166	1.375	-255.26082	63.64528	1556.11755	-151.37494	55.73777	1458.46411	-364.60596	63.70178	1472.84143	-178.80638	41.55482	1316.99609	-380.62796	46.61296	1362.54065	-300.89075	-70.01490	1274.53906	-273.57892	146.28285	1284.76941	-357.86075	-141.27995	1267.31055	-317.37286	242.43875	1283.35132	-431.63712	-34.56353	1283.55286	-419.60019	147.96547	1287.09583	-475.89853	-15.01511	1201.39758	-346.28604	-193.77898	1124.65088	-391.94061	-207.23244	966.30237	-412.10226	-133.36507	952.46692	-318.93121	-208.03937	888.21686	-353.31369	-229.59312	804.49817	-285.70197	-192.20915	755.23138	-294.78958	-231.18631	721.33154	-265.07065	-193.57452	701.41229	-255.04445	-176.87390	667.52222	-250.93201	-164.63043	626.02032	-281.67194	-242.79416	643.41638	-284.72717	-223.13477	594.39917	-299.83710	-199.24310	562.93475	-333.23050	305.00443	1139.00464	-382.63147	318.32574	995.05029	-407.44366	240.56326	986.95276	-297.66260	298.82269	931.37006	-306.57224	335.57123	839.58582	-254.70738	276.81747	799.83502	-243.92888	324.32703	773.92358	-224.48207	282.58609	764.39838	-214.85458	256.67447	727.67523	-209.82372	243.21103	678.99445	-215.74911	320.82382	688.29712	-215.81764	304.79626	649.72369	-226.34584	270.58762	618.89410	-475.04996	50.63655	894.23523	-288.63278	-104.62923	961.20044	-285.75937	211.96014	946.29761	-218.15312	-136.36623	583.62964	-134.38019	-59.25005	511.84692	-169.24715	-92.88014	450.94592	-166.18948	17.30980	449.81604	-164.04195	-38.84179	279.37369	-233.61406	-58.64583	65.84508	-217.67221	31.26915	81.49308	-292.52936	-5.36433	40.68555	-89.64611	-35.29076	39.95335	-148.17680	9.89797	62.95355	-324.34479	250.25526	571.20520	-330.74139	231.66660	429.54321	-309.97809	112.32705	404.47946	-426.79852	168.21454	254.63870	-588.91443	181.34726	129.51897	-564.78711	92.57746	142.25069	-648.39270	131.10419	142.74265	-482.24277	137.88828	35.52345	-512.10767	110.82103	80.04028																																																																																																																															
167	1.383	-249.78513	61.77010	1557.40515	-145.71648	54.31876	1459.14075	-358.77502	61.91827	1474.48462	-173.09023	41.15695	1318.04858	-374.50284	43.75995	1364.24182	-295.15677	-71.27233	1276.52649	-267.73212	143.82292	1285.81201	-351.90759	-142.94511	1268.28723	-311.62000	240.44835	1284.84790	-425.30646	-36.76530	1284.81348	-414.47864	146.13622	1288.68835	-469.25113	-16.12332	1202.36353	-338.92044	-195.17938	1126.29773	-383.73892	-209.09186	967.32538	-404.19287	-136.20123	953.45752	-309.15976	-210.01997	889.77582	-343.62662	-231.95490	805.97180	-274.97977	-193.12062	757.40082	-283.64758	-233.44188	722.86102	-253.70695	-195.38982	704.01184	-244.90247	-178.38069	668.93671	-239.47725	-167.08337	628.24475	-268.35855	-245.34485	645.57813	-273.17371	-225.10397	596.58722	-287.83459	-200.49222	564.63220	-327.79303	303.70300	1140.68384	-377.42020	316.48914	996.63324	-401.76541	238.54012	989.02209	-291.93774	298.29770	933.35785	-300.38998	333.97375	841.08929	-248.64954	276.13522	801.67914	-239.20000	323.86688	775.65961	-218.61868	280.52844	765.92401	-208.62778	256.21994	729.73822	-203.22360	243.11972	680.30243	-210.15231	320.94266	689.19952	-205.51656	304.77155	651.78931	-220.51184	270.64612	619.78656	-469.30902	50.45712	895.24506	-282.93118	-105.37234	963.26074	-280.04190	210.02126	947.32184	-213.86604	-136.65150	583.83368	-132.11780	-61.62143	511.70810	-168.44342	-93.91304	450.90112	-164.64166	17.90127	449.46494	-162.48116	-39.83083	279.07581	-233.71535	-58.67925	65.55640	-217.67221	31.26915	81.49308	-292.52054	-5.64778	40.54684	-89.93981	-34.81376	39.48698	-147.99379	9.79126	63.01033	-313.15005	250.60199	571.67084	-316.53305	233.52786	429.16193	-294.30084	114.16491	404.24860	-417.52991	168.51257	256.07364	-579.92487	179.80830	136.41504	-555.50397	93.53999	146.69380	-639.00232	130.78621	151.18896	-480.06982	136.83305	36.06743	-507.08469	109.53648	81.42699																																																																																																																															
168	1.392	-242.94913	59.84106	1558.88306	-140.24474	52.90443	1460.24866	-353.31573	60.10814	1474.77686	-166.82271	38.85545	1319.01270	-368.85138	44.03651	1365.24219	-289.55029	-73.20809	1277.66321	-260.94748	143.20703	1287.08862	-345.90891	-144.10237	1270.18994	-305.47739	238.67265	1285.72766	-419.61838	-37.23709	1285.88721	-408.73859	144.96040	1289.75903	-463.19308	-17.33201	1203.04712	-331.84570	-196.57361	1127.68542	-374.85220	-210.85312	968.18829	-396.47638	-137.41016	954.14502	-300.31076	-212.60774	891.56946	-333.92319	-233.78712	807.75354	-265.10391	-194.75584	758.23859	-273.11246	-234.43274	725.46686	-243.05531	-196.98409	706.22797	-234.72536	-179.24306	671.16205	-228.02524	-169.35689	630.70306	-257.23056	-247.16467	648.54675	-260.10464	-226.70622	598.68817	-275.08148	-203.52350	565.85565	-322.48553	302.47397	1142.30432	-371.96942	313.42578	997.84802	-395.30798	235.88109	989.96448	-286.85962	296.65805	934.36157	-295.97412	333.33725	842.91663	-242.94695	274.02719	802.14526	-233.42253	323.56967	776.45288	-212.06128	280.26740	767.50629	-202.36543	255.84042	730.69592	-197.16214	243.01849	681.31165	-204.30957	321.10443	692.00525	-195.79909	304.27713	653.76666	-214.44698	270.61444	621.56250	-463.38699	49.04933	896.27802	-277.27374	-106.23679	964.43439	-273.64081	208.27159	948.43414	-210.74866	-137.81360	584.35217	-129.64603	-62.39607	511.59500	-166.54642	-95.22495	450.98135	-163.92349	16.61327	448.14575	-162.11852	-41.39305	278.28546	-233.47911	-58.74852	65.40498	-217.76207	31.22389	81.61245	-292.53464	-5.59991	40.41474	-90.18292	-34.36712	39.25111	-147.85533	9.19301	63.40782	-302.14993	250.44121	572.51385	-303.11508	235.10207	429.67047	-279.30847	116.74144	403.46173	-406.41656	170.16859	258.51862	-572.77130	181.47346	142.43813	-545.76917	93.44540	151.77333	-629.62512	130.38173	160.02002	-478.51489	136.15584	36.25940	-501.82028	109.70518	82.36780																																																																																																																															
169	1.400	-236.66095	59.35500	1558.87708	-134.02129	52.16256	1461.29761	-347.29620	59.22867	1475.69470	-161.15948	37.56915	1320.05798	-363.21381	41.92105	1365.68738	-283.13165	-73.93672	1278.62659	-255.99498	141.44377	1288.08301	-339.23358	-145.50372	1271.30078	-299.81918	238.10284	1286.50317	-413.70102	-38.35059	1286.98792	-402.40509	144.21269	1290.66833	-456.93588	-19.29571	1204.25244	-324.54831	-199.52036	1128.48206	-366.95938	-212.83716	969.35223	-387.37830	-138.83009	955.23029	-291.42023	-213.94188	893.27972	-323.08243	-235.90103	809.04602	-254.87207	-196.28136	761.41943	-260.77597	-236.66762	727.58978	-232.39665	-198.55740	708.48523	-221.87268	-183.27693	673.88416	-217.34329	-169.73195	632.89856	-246.15067	-249.06271	650.24164	-248.05070	-228.01572	600.26013	-262.47040	-205.09677	569.27100	-316.21851	301.65326	1143.34619	-367.26376	312.06119	998.93091	-387.98138	233.74728	991.59277	-281.00211	294.96753	936.17102	-290.51984	331.86023	843.90656	-236.94781	273.95007	803.87195	-228.11748	323.39059	778.11127	-207.57234	279.98264	768.21466	-196.55533	256.07513	731.60876	-190.41502	245.13286	682.15326	-197.82640	321.30685	693.34448	-195.65637	307.23215	653.23511	-208.08025	273.12482	621.80139	-456.83636	48.51564	897.85730	-271.72507	-108.19297	965.35272	-267.50266	207.13834	949.49884	-207.90773	-138.11850	584.00330	-127.56543	-63.20371	510.18008	-165.96191	-96.42123	450.59558	-162.96161	14.71873	447.65210	-162.03732	-44.28237	277.78146	-233.39145	-59.20970	64.84010	-217.76207	31.22389	81.61245	-292.53464	-5.59991	40.41474	-89.94035	-35.04474	39.49700	-148.14891	8.66677	63.68973	-289.93686	250.46518	573.50708	-288.00229	235.70418	430.15933	-263.09717	118.11249	403.09598	-394.38806	171.85245	259.91885	-563.33929	182.25491	147.09485	-536.60120	94.02485	155.68259	-618.42010	130.75839	167.65291	-477.08325	136.34421	36.44236	-495.74054	108.72796	84.05032																																																																																																																															
170	1.408	-230.85495	57.82512	1559.71313	-128.53198	51.39372	1462.16919	-341.68066	58.79935	1476.79614	-155.44109	37.00801	1320.86548	-357.05237	40.63597	1366.12476	-277.24957	-75.33479	1280.03516	-250.39066	139.65265	1289.43164	-332.76660	-146.86682	1272.38818	-294.07034	236.07338	1288.14453	-407.50269	-40.33604	1287.87622	-397.25043	142.35045	1291.34912	-450.94946	-20.63831	1204.85339	-317.60681	-199.37074	1130.70959	-358.22662	-214.75226	970.72186	-379.24448	-141.17253	955.66858	-281.72531	-215.12334	895.25281	-313.59116	-238.74886	811.07184	-244.26233	-199.40900	763.36554	-250.66901	-238.22627	729.81506	-220.74976	-200.78061	711.02777	-212.49504	-183.37041	675.57544	-205.15088	-171.27429	635.18677	-234.67247	-250.29457	652.96448	-236.85008	-230.59917	602.93591	-250.51418	-207.18240	571.42090	-311.53882	299.61847	1144.56323	-361.45572	310.62759	1000.48425	-382.89819	232.02235	992.30548	-275.44113	294.36349	936.51947	-285.00906	331.36765	845.28186	-231.31575	273.64246	803.60809	-222.43407	322.90778	780.12366	-199.93204	279.94470	770.18262	-189.40662	256.82767	732.51178	-183.83627	245.86740	683.71484	-191.38072	321.32822	695.03009	-189.84990	308.31247	655.95032	-200.09184	273.84879	623.60651	-451.70380	47.90750	898.59619	-266.88995	-109.29182	966.14575	-261.39407	205.03308	950.61792	-204.90416	-140.01959	583.97278	-125.28268	-63.54316	509.00485	-165.46735	-98.14672	450.11893	-160.04309	14.87415	448.00552	-160.73697	-45.53409	277.43024	-233.39233	-59.49870	64.57960	-217.83908	31.21358	81.69431	-292.42294	-5.39640	40.31467	-89.84055	-35.55153	39.46082	-148.14891	8.66677	63.68973	-278.34180	252.37384	573.46436	-274.30350	237.02544	430.45578	-247.66460	119.50822	403.53983	-382.35031	172.44441	261.47958	-552.49237	183.05232	151.32912	-525.93268	95.40732	158.78731	-607.55328	132.13589	174.68796	-473.80090	136.42381	36.79730	-488.72455	109.40875	84.93933																																																																																																																															
